<?xml version="1.0" encoding="UTF-8"?>
<svg xmlns="http://www.w3.org/2000/svg" width="900" height="360" viewBox="0 0 900 360">
  <rect width="100%" height="100%" fill="#f8fafc"/>
  <text x="450.0" y="24" text-anchor="middle" font-family="Arial, sans-serif" font-size="16" font-weight="700" fill="#111827">近 7 日淨值（每 2 小時已知點；09-26 00:09 HKT）</text>
  <rect x="70" y="36" width="800" height="276" fill="#ffffff" stroke="#e5e7eb"/>
  <line x1="70" y1="273.1" x2="870" y2="273.1" stroke="#e5e7eb"/>
  <text x="62" y="277.1" text-anchor="end" font-size="11" font-family="Arial" fill="#6b7280">$204</text>
  <line x1="70" y1="233.8" x2="870" y2="233.8" stroke="#e5e7eb"/>
  <text x="62" y="237.8" text-anchor="end" font-size="11" font-family="Arial" fill="#6b7280">$208</text>
  <line x1="70" y1="194.4" x2="870" y2="194.4" stroke="#e5e7eb"/>
  <text x="62" y="198.4" text-anchor="end" font-size="11" font-family="Arial" fill="#6b7280">$212</text>
  <line x1="70" y1="155.1" x2="870" y2="155.1" stroke="#e5e7eb"/>
  <text x="62" y="159.1" text-anchor="end" font-size="11" font-family="Arial" fill="#6b7280">$216</text>
  <line x1="70" y1="115.7" x2="870" y2="115.7" stroke="#e5e7eb"/>
  <text x="62" y="119.7" text-anchor="end" font-size="11" font-family="Arial" fill="#6b7280">$220</text>
  <line x1="70" y1="76.3" x2="870" y2="76.3" stroke="#e5e7eb"/>
  <text x="62" y="80.3" text-anchor="end" font-size="11" font-family="Arial" fill="#6b7280">$224</text>
  <line x1="70" y1="37.0" x2="870" y2="37.0" stroke="#e5e7eb"/>
  <text x="62" y="41.0" text-anchor="end" font-size="11" font-family="Arial" fill="#6b7280">$228</text>
  <text x="183.6" y="342" text-anchor="middle" font-size="11" font-family="Arial" fill="#6b7280">09-20</text>
  <text x="297.9" y="342" text-anchor="middle" font-size="11" font-family="Arial" fill="#6b7280">09-21</text>
  <text x="412.1" y="342" text-anchor="middle" font-size="11" font-family="Arial" fill="#6b7280">09-22</text>
  <text x="526.4" y="342" text-anchor="middle" font-size="11" font-family="Arial" fill="#6b7280">09-23</text>
  <text x="640.7" y="342" text-anchor="middle" font-size="11" font-family="Arial" fill="#6b7280">09-24</text>
  <text x="755.0" y="342" text-anchor="middle" font-size="11" font-family="Arial" fill="#6b7280">09-25</text>
  <text x="869.3" y="342" text-anchor="middle" font-size="11" font-family="Arial" fill="#6b7280">09-26</text>
  <path d="M 698.2 254.8 C 699.8 252.8, 704.5 246.5, 707.7 242.7 C 710.9 239.0, 714.1 225.8, 717.2 232.4 C 720.4 239.0, 723.5 277.8, 726.7 282.5 C 729.9 287.1, 733.3 273.3, 736.4 260.2 C 739.6 247.2, 742.6 215.2, 745.7 204.3 C 748.9 193.3, 752.2 194.5, 755.4 194.7 C 758.6 194.9, 761.7 210.1, 764.8 205.3 C 768.0 200.5, 771.2 168.1, 774.4 165.9 C 777.6 163.7, 780.9 188.4, 784.0 192.0 C 787.2 195.5, 790.7 189.6, 793.2 187.3 C 795.6 185.1, 797.2 180.2, 798.8 178.4 C 800.5 176.5, 800.8 173.5, 803.1 176.2 C 805.4 178.9, 809.2 193.8, 812.4 194.5 C 815.6 195.2, 818.8 187.7, 822.1 180.2 C 825.5 172.8, 829.4 159.7, 832.7 149.9 C 836.0 140.2, 838.7 136.0, 841.7 121.9 C 844.7 107.8, 847.4 69.7, 850.7 65.5 C 854.0 61.3, 858.2 91.9, 861.4 96.5 C 864.6 101.2, 868.6 94.0, 870.0 93.5" fill="none" stroke="#2563eb" stroke-width="2.5"/>
  <circle cx="698.2" cy="254.8" r="2.4" fill="#1d4ed8"/>
  <circle cx="707.7" cy="242.7" r="2.4" fill="#1d4ed8"/>
  <circle cx="717.2" cy="232.4" r="2.4" fill="#1d4ed8"/>
  <circle cx="726.7" cy="282.5" r="2.4" fill="#1d4ed8"/>
  <circle cx="736.4" cy="260.2" r="2.4" fill="#1d4ed8"/>
  <circle cx="745.7" cy="204.3" r="2.4" fill="#1d4ed8"/>
  <circle cx="755.4" cy="194.7" r="2.4" fill="#1d4ed8"/>
  <circle cx="764.8" cy="205.3" r="2.4" fill="#1d4ed8"/>
  <circle cx="774.4" cy="165.9" r="2.4" fill="#1d4ed8"/>
  <circle cx="784.0" cy="192.0" r="2.4" fill="#1d4ed8"/>
  <circle cx="793.2" cy="187.3" r="2.4" fill="#1d4ed8"/>
  <circle cx="798.8" cy="178.4" r="2.4" fill="#1d4ed8"/>
  <circle cx="803.1" cy="176.2" r="2.4" fill="#1d4ed8"/>
  <circle cx="812.4" cy="194.5" r="2.4" fill="#1d4ed8"/>
  <circle cx="822.1" cy="180.2" r="2.4" fill="#1d4ed8"/>
  <circle cx="832.7" cy="149.9" r="2.4" fill="#1d4ed8"/>
  <circle cx="841.7" cy="121.9" r="2.4" fill="#1d4ed8"/>
  <circle cx="850.7" cy="65.5" r="2.4" fill="#1d4ed8"/>
  <circle cx="861.4" cy="96.5" r="2.4" fill="#1d4ed8"/>
  <circle cx="870.0" cy="93.5" r="2.4" fill="#1d4ed8"/>
  <circle cx="870.0" cy="93.5" r="5" fill="#dc2626"/>
  <text x="862.0" y="81.5" text-anchor="end" font-size="13" font-weight="700" font-family="Arial" fill="#111827">$222.26</text>
  <text x="70" y="354" font-size="10" font-family="Arial" fill="#9ca3af">缺 2026-09-19~23 全日 2h 點；圖為已寫入 Notion 快照＋本輪 live。Coinbase 本輪 403，現價用 KuCoin／CoinGecko。</text>
</svg>
